<svg width="36" height="24" viewBox="0 0 24 16" fill="none" xmlns="http://www.w3.org/2000/svg">
<g clip-path="url(#clip0_149_10297)">
<path d="M22.2036 0.138672H1.7984C0.80568 0.138672 0.000976562 0.943375 0.000976562 1.93609V14.0654C0.000976562 15.0581 0.80568 15.8628 1.7984 15.8628H22.2036C23.1962 15.8628 24.001 15.0581 24.001 14.0654V1.93609C24.001 0.943375 23.1963 0.138672 22.2036 0.138672Z" fill="#F5F5F5"/>
<path d="M0.0996094 1.34823H23.9018C23.6583 0.644312 22.99 0.138672 22.2033 0.138672H1.79817C1.01142 0.138672 0.343219 0.644312 0.0996094 1.34823Z" fill="#FF4B55"/>
<path d="M24.001 4.97559H0.000976562V6.1851H24.001V4.97559Z" fill="#FF4B55"/>
<path d="M24.001 2.55762H0.000976562V3.76713H24.001V2.55762Z" fill="#FF4B55"/>
<path d="M0.000976562 8.19125C0.000976562 8.41976 0.186273 8.60506 0.414789 8.60506H24.001V7.39551H0.000976562V8.19125Z" fill="#FF4B55"/>
<path d="M24.001 12.2334H0.000976562V13.443H24.001V12.2334Z" fill="#FF4B55"/>
<path d="M23.9019 14.6523H0.0996094C0.343219 15.3563 1.01147 15.8619 1.79817 15.8619H22.2033C22.9901 15.8619 23.6583 15.3563 23.9019 14.6523Z" fill="#FF4B55"/>
<path d="M24.001 9.81543H0.000976562V11.0249H24.001V9.81543Z" fill="#FF4B55"/>
<path d="M0.414789 8.60459H10.7596C10.9881 8.60459 11.1734 8.41929 11.1734 8.19077V0.551508C11.1734 0.322945 10.9881 0.137695 10.7596 0.137695H1.7984C0.80568 0.137742 0.000976562 0.942445 0.000976562 1.93516V8.19077C0.000976562 8.41934 0.186273 8.60459 0.414789 8.60459Z" fill="#41479B"/>
<path d="M1.16284 1.0882L1.25443 1.36289L1.54398 1.36509C1.58148 1.36542 1.59699 1.41323 1.56685 1.4355L1.33393 1.60748L1.4213 1.88353C1.43265 1.91925 1.39191 1.94887 1.3614 1.92703L1.12585 1.7587L0.890305 1.92708C0.85979 1.94892 0.819149 1.91929 0.830399 1.88358L0.917774 1.60753L0.684853 1.43554C0.654712 1.41323 0.670228 1.36542 0.707728 1.36514L0.997274 1.36294L1.08887 1.08825C1.10068 1.05262 1.15093 1.05262 1.16284 1.0882Z" fill="#F5F5F5"/>
<path d="M1.16284 2.52567L1.25443 2.80036L1.54398 2.80256C1.58148 2.80289 1.59699 2.85065 1.56685 2.87297L1.33393 3.045L1.4213 3.32105C1.43265 3.35677 1.39191 3.38639 1.3614 3.36455L1.12585 3.19622L0.890305 3.3646C0.85979 3.38639 0.819149 3.35681 0.830399 3.32109L0.917774 3.04505L0.684853 2.87301C0.654712 2.8507 0.670228 2.80293 0.707728 2.80261L0.997274 2.8004L1.08887 2.52571C1.10068 2.49013 1.15093 2.49013 1.16284 2.52567Z" fill="#F5F5F5"/>
<path d="M1.16284 3.96222L1.25443 4.23691L1.54398 4.23912C1.58148 4.23944 1.59699 4.28721 1.56685 4.30952L1.33393 4.48155L1.4213 4.7576C1.43265 4.79332 1.39191 4.82295 1.3614 4.8011L1.12585 4.63277L0.890305 4.80115C0.85979 4.82295 0.819149 4.79341 0.830399 4.75765L0.917774 4.4816L0.684853 4.30957C0.654712 4.28726 0.670228 4.23949 0.707728 4.23916L0.997274 4.23696L1.08887 3.96227C1.10068 3.92665 1.15093 3.92665 1.16284 3.96222Z" fill="#F5F5F5"/>
<path d="M1.16284 5.39875L1.25443 5.67343L1.54398 5.67564C1.58148 5.67596 1.59699 5.72378 1.56685 5.74604L1.33393 5.91807L1.4213 6.19412C1.43265 6.22984 1.39191 6.25946 1.3614 6.23762L1.12585 6.06929L0.890305 6.23766C0.85979 6.25946 0.819149 6.22988 0.830399 6.19416L0.917774 5.91812L0.684853 5.74609C0.654712 5.72387 0.670228 5.67601 0.707728 5.67568L0.997274 5.67348L1.08887 5.39879C1.10068 5.36317 1.15093 5.36317 1.16284 5.39875Z" fill="#F5F5F5"/>
<path d="M1.16284 6.83621L1.25443 7.1109L1.54398 7.1131C1.58148 7.11343 1.59699 7.1612 1.56685 7.18351L1.33393 7.35554L1.4213 7.63159C1.43265 7.66731 1.39191 7.69693 1.3614 7.67509L1.12585 7.50676L0.890305 7.67513C0.85979 7.69693 0.819149 7.66735 0.830399 7.63163L0.917774 7.35559L0.684853 7.18356C0.654712 7.16124 0.670228 7.11348 0.707728 7.11315L0.997274 7.11095L1.08887 6.83626C1.10068 6.80068 1.15093 6.80068 1.16284 6.83621Z" fill="#F5F5F5"/>
<path d="M2.27807 1.79325L2.36966 2.06794L2.65921 2.07014C2.69671 2.07047 2.71223 2.11828 2.68209 2.14055L2.44916 2.31258L2.53654 2.58863C2.54788 2.62435 2.50715 2.65397 2.47663 2.63213L2.24109 2.46375L2.00554 2.63213C1.97502 2.65393 1.93438 2.62435 1.94563 2.58863L2.03301 2.31258L1.80009 2.14055C1.76995 2.11824 1.78546 2.07047 1.82296 2.07014L2.11251 2.06794L2.2041 1.79325C2.21591 1.75772 2.26621 1.75772 2.27807 1.79325Z" fill="#F5F5F5"/>
<path d="M2.27807 3.22981L2.36966 3.5045L2.65921 3.5067C2.69671 3.50703 2.71223 3.55484 2.68209 3.57711L2.44916 3.74914L2.53654 4.02518C2.54788 4.0609 2.50715 4.09053 2.47663 4.06868L2.24109 3.90031L2.00554 4.06868C1.97502 4.09048 1.93438 4.06095 1.94563 4.02518L2.03301 3.74914L1.80009 3.57711C1.76995 3.55489 1.78546 3.50703 1.82296 3.5067L2.11251 3.5045L2.2041 3.22981C2.21591 3.19423 2.26621 3.19423 2.27807 3.22981Z" fill="#F5F5F5"/>
<path d="M2.27807 4.66633L2.36966 4.94102L2.65921 4.94322C2.69671 4.94355 2.71223 4.99132 2.68209 5.01363L2.44916 5.18566L2.53654 5.46171C2.54788 5.49743 2.50715 5.52705 2.47663 5.50521L2.24109 5.33683L2.00554 5.50521C1.97502 5.52701 1.93438 5.49743 1.94563 5.46171L2.03301 5.18566L1.80009 5.01363C1.76995 4.99132 1.78546 4.94355 1.82296 4.94322L2.11251 4.94102L2.2041 4.66633C2.21591 4.63075 2.26621 4.63075 2.27807 4.66633Z" fill="#F5F5F5"/>
<path d="M2.27807 6.1038L2.36966 6.37848L2.65921 6.38069C2.69671 6.38102 2.71223 6.42878 2.68209 6.45109L2.44916 6.62312L2.53654 6.89917C2.54788 6.93489 2.50715 6.96451 2.47663 6.94267L2.24109 6.7743L2.00554 6.94267C1.97502 6.96451 1.93438 6.93489 1.94563 6.89917L2.03301 6.62312L1.80009 6.45109C1.76995 6.42878 1.78546 6.38102 1.82296 6.38069L2.11251 6.37848L2.2041 6.1038C2.21591 6.06827 2.26621 6.06827 2.27807 6.1038Z" fill="#F5F5F5"/>
<path d="M3.3933 1.08821L3.4849 1.3629L3.77444 1.3651C3.81194 1.36543 3.82746 1.41324 3.79732 1.4355L3.5644 1.60749L3.65177 1.88354C3.66312 1.91926 3.62238 1.94888 3.59187 1.92704L3.35632 1.75866L3.12077 1.92704C3.09026 1.94888 3.04962 1.91926 3.06087 1.88354L3.14824 1.60749L2.91532 1.4355C2.88518 1.41319 2.9007 1.36538 2.9382 1.3651L3.22774 1.3629L3.31934 1.08821C3.33115 1.05263 3.38145 1.05263 3.3933 1.08821Z" fill="#F5F5F5"/>
<path d="M3.3933 2.52567L3.4849 2.80036L3.77444 2.80256C3.81194 2.80289 3.82746 2.85066 3.79732 2.87297L3.5644 3.045L3.65177 3.32105C3.66312 3.35676 3.62238 3.38639 3.59187 3.36455L3.35632 3.19617L3.12077 3.36455C3.09026 3.38634 3.04962 3.35676 3.06087 3.32105L3.14824 3.045L2.91532 2.87297C2.88518 2.85066 2.9007 2.80289 2.9382 2.80256L3.22774 2.80036L3.31934 2.52567C3.33115 2.49014 3.38145 2.49014 3.3933 2.52567Z" fill="#F5F5F5"/>
<path d="M3.3933 3.96223L3.4849 4.23692L3.77444 4.23912C3.81194 4.23945 3.82746 4.28722 3.79732 4.30953L3.5644 4.48156L3.65177 4.75761C3.66312 4.79332 3.62238 4.82295 3.59187 4.80111L3.35632 4.63273L3.12077 4.80111C3.09026 4.8229 3.04962 4.79337 3.06087 4.75761L3.14824 4.48156L2.91532 4.30953C2.88518 4.28722 2.9007 4.23945 2.9382 4.23912L3.22774 4.23692L3.31934 3.96223C3.33115 3.92665 3.38145 3.92665 3.3933 3.96223Z" fill="#F5F5F5"/>
<path d="M3.3933 5.39875L3.4849 5.67344L3.77444 5.67565C3.81194 5.67597 3.82746 5.72379 3.79732 5.74605L3.5644 5.91808L3.65177 6.19413C3.66312 6.22985 3.62238 6.25948 3.59187 6.23763L3.35632 6.06926L3.12077 6.23763C3.09026 6.25943 3.04962 6.22985 3.06087 6.19413L3.14824 5.91808L2.91532 5.74605C2.88518 5.72383 2.9007 5.67597 2.9382 5.67565L3.22774 5.67344L3.31934 5.39875C3.33115 5.36318 3.38145 5.36318 3.3933 5.39875Z" fill="#F5F5F5"/>
<path d="M3.3933 6.83622L3.4849 7.11091L3.77444 7.11311C3.81194 7.11344 3.82746 7.1612 3.79732 7.18351L3.5644 7.35555L3.65177 7.63159C3.66312 7.66731 3.62238 7.69694 3.59187 7.67509L3.35632 7.50672L3.12077 7.67509C3.09026 7.69689 3.04962 7.66731 3.06087 7.63159L3.14824 7.35555L2.91532 7.18351C2.88518 7.1612 2.9007 7.11344 2.9382 7.11311L3.22774 7.11091L3.31934 6.83622C3.33115 6.80069 3.38145 6.80069 3.3933 6.83622Z" fill="#F5F5F5"/>
<path d="M4.50854 1.79325L4.60013 2.06794L4.88968 2.07014C4.92718 2.07047 4.9427 2.11828 4.91256 2.14055L4.67963 2.31258L4.76701 2.58863C4.77835 2.62435 4.73762 2.65397 4.7071 2.63213L4.47156 2.46375L4.23601 2.63213C4.20549 2.65393 4.16485 2.62435 4.1761 2.58863L4.26348 2.31258L4.03056 2.14055C4.00042 2.11824 4.01593 2.07047 4.05343 2.07014L4.34298 2.06794L4.43457 1.79325C4.44634 1.75772 4.49668 1.75772 4.50854 1.79325Z" fill="#F5F5F5"/>
<path d="M4.50854 3.22981L4.60013 3.5045L4.88968 3.5067C4.92718 3.50703 4.9427 3.55484 4.91256 3.57711L4.67963 3.74914L4.76701 4.02518C4.77835 4.0609 4.73762 4.09053 4.7071 4.06868L4.47156 3.90031L4.23601 4.06868C4.20549 4.09048 4.16485 4.06095 4.1761 4.02518L4.26348 3.74914L4.03056 3.57711C4.00042 3.55489 4.01593 3.50703 4.05343 3.5067L4.34298 3.5045L4.43457 3.22981C4.44634 3.19423 4.49668 3.19423 4.50854 3.22981Z" fill="#F5F5F5"/>
<path d="M4.50854 4.66633L4.60013 4.94102L4.88968 4.94322C4.92718 4.94355 4.9427 4.99132 4.91256 5.01363L4.67963 5.18566L4.76701 5.46171C4.77835 5.49743 4.73762 5.52705 4.7071 5.50521L4.47156 5.33683L4.23601 5.50521C4.20549 5.52701 4.16485 5.49743 4.1761 5.46171L4.26348 5.18566L4.03056 5.01363C4.00042 4.99132 4.01593 4.94355 4.05343 4.94322L4.34298 4.94102L4.43457 4.66633C4.44634 4.63075 4.49668 4.63075 4.50854 4.66633Z" fill="#F5F5F5"/>
<path d="M4.50854 6.1038L4.60013 6.37848L4.88968 6.38069C4.92718 6.38102 4.9427 6.42878 4.91256 6.45109L4.67963 6.62312L4.76701 6.89917C4.77835 6.93489 4.73762 6.96451 4.7071 6.94267L4.47156 6.7743L4.23601 6.94267C4.20549 6.96451 4.16485 6.93489 4.1761 6.89917L4.26348 6.62312L4.03056 6.45109C4.00042 6.42878 4.01593 6.38102 4.05343 6.38069L4.34298 6.37848L4.43457 6.1038C4.44634 6.06827 4.49668 6.06827 4.50854 6.1038Z" fill="#F5F5F5"/>
<path d="M5.62431 1.0882L5.7159 1.36289L6.00545 1.36509C6.04295 1.36542 6.05847 1.41323 6.02833 1.4355L5.7954 1.60748L5.88278 1.88353C5.89412 1.91925 5.85339 1.94887 5.82287 1.92703L5.58728 1.7587L5.35173 1.92708C5.32122 1.94892 5.28058 1.91929 5.29183 1.88358L5.3792 1.60753L5.14628 1.43554C5.11614 1.41323 5.13165 1.36542 5.16915 1.36514L5.4587 1.36294L5.5503 1.08825C5.56215 1.05262 5.61245 1.05262 5.62431 1.0882Z" fill="#F5F5F5"/>
<path d="M5.62431 2.52567L5.7159 2.80036L6.00545 2.80256C6.04295 2.80289 6.05847 2.85066 6.02833 2.87297L5.7954 3.045L5.88278 3.32105C5.89412 3.35676 5.85339 3.38639 5.82287 3.36455L5.58728 3.19617L5.35173 3.36455C5.32122 3.38634 5.28058 3.35676 5.29183 3.32105L5.3792 3.045L5.14628 2.87297C5.11614 2.85066 5.13165 2.80289 5.16915 2.80256L5.4587 2.80036L5.5503 2.52567C5.56215 2.49014 5.61245 2.49014 5.62431 2.52567Z" fill="#F5F5F5"/>
<path d="M5.62431 3.96224L5.7159 4.23692L6.00545 4.23913C6.04295 4.23946 6.05847 4.28722 6.02833 4.30953L5.7954 4.48156L5.88278 4.75761C5.89412 4.79333 5.85339 4.82296 5.82287 4.80111L5.58728 4.63269L5.35173 4.80106C5.32122 4.82286 5.28058 4.79328 5.29183 4.75756L5.3792 4.48152L5.14628 4.30949C5.11614 4.28717 5.13165 4.23941 5.16915 4.23908L5.4587 4.23688L5.5503 3.96219C5.56215 3.92666 5.61245 3.92666 5.62431 3.96224Z" fill="#F5F5F5"/>
<path d="M5.62431 5.39875L5.7159 5.67344L6.00545 5.67565C6.04295 5.67597 6.05847 5.72379 6.02833 5.74605L5.7954 5.91808L5.88278 6.19413C5.89412 6.22985 5.85339 6.25948 5.82287 6.23763L5.58728 6.06926L5.35173 6.23763C5.32122 6.25943 5.28058 6.22985 5.29183 6.19413L5.3792 5.91808L5.14628 5.74605C5.11614 5.72383 5.13165 5.67597 5.16915 5.67565L5.4587 5.67344L5.5503 5.39875C5.56215 5.36318 5.61245 5.36318 5.62431 5.39875Z" fill="#F5F5F5"/>
<path d="M5.62431 6.83622L5.7159 7.11091L6.00545 7.11311C6.04295 7.11344 6.05847 7.1612 6.02833 7.18351L5.7954 7.35555L5.88278 7.63159C5.89412 7.66731 5.85339 7.69694 5.82287 7.67509L5.58728 7.50672L5.35173 7.67509C5.32122 7.69689 5.28058 7.66731 5.29183 7.63159L5.3792 7.35555L5.14628 7.18351C5.11614 7.1612 5.13165 7.11344 5.16915 7.11311L5.4587 7.11091L5.5503 6.83622C5.56215 6.80069 5.61245 6.80069 5.62431 6.83622Z" fill="#F5F5F5"/>
<path d="M6.73949 1.79325L6.83109 2.06794L7.12063 2.07014C7.15813 2.07047 7.17365 2.11828 7.14351 2.14055L6.91059 2.31258L6.99796 2.58863C7.0093 2.62435 6.96857 2.65397 6.93805 2.63213L6.70251 2.46375L6.46696 2.63213C6.43645 2.65393 6.39581 2.62435 6.40706 2.58863L6.49443 2.31258L6.26151 2.14055C6.23137 2.11824 6.24689 2.07047 6.28439 2.07014L6.57393 2.06794L6.66553 1.79325C6.67738 1.75772 6.72763 1.75772 6.73949 1.79325Z" fill="#F5F5F5"/>
<path d="M6.73949 3.22981L6.83109 3.5045L7.12063 3.5067C7.15813 3.50703 7.17365 3.55484 7.14351 3.57711L6.91059 3.74914L6.99796 4.02518C7.0093 4.0609 6.96857 4.09053 6.93805 4.06868L6.70251 3.90031L6.46696 4.06868C6.43645 4.09048 6.39581 4.06095 6.40706 4.02518L6.49443 3.74914L6.26151 3.57711C6.23137 3.55489 6.24689 3.50703 6.28439 3.5067L6.57393 3.5045L6.66553 3.22981C6.67738 3.19423 6.72763 3.19423 6.73949 3.22981Z" fill="#F5F5F5"/>
<path d="M6.73949 4.66633L6.83109 4.94102L7.12063 4.94322C7.15813 4.94355 7.17365 4.99132 7.14351 5.01363L6.91059 5.18566L6.99796 5.46171C7.0093 5.49743 6.96857 5.52705 6.93805 5.50521L6.70251 5.33683L6.46696 5.50521C6.43645 5.52701 6.39581 5.49743 6.40706 5.46171L6.49443 5.18566L6.26151 5.01363C6.23137 4.99132 6.24689 4.94355 6.28439 4.94322L6.57393 4.94102L6.66553 4.66633C6.67738 4.63075 6.72763 4.63075 6.73949 4.66633Z" fill="#F5F5F5"/>
<path d="M6.73949 6.1038L6.83109 6.37848L7.12063 6.38069C7.15813 6.38102 7.17365 6.42878 7.14351 6.45109L6.91059 6.62312L6.99796 6.89917C7.0093 6.93489 6.96857 6.96451 6.93805 6.94267L6.70251 6.7743L6.46696 6.94267C6.43645 6.96451 6.39581 6.93489 6.40706 6.89917L6.49443 6.62312L6.26151 6.45109C6.23137 6.42878 6.24689 6.38102 6.28439 6.38069L6.57393 6.37848L6.66553 6.1038C6.67738 6.06827 6.72763 6.06827 6.73949 6.1038Z" fill="#F5F5F5"/>
<path d="M7.85473 1.08821L7.94632 1.3629L8.23587 1.3651C8.27337 1.36543 8.28888 1.41324 8.25874 1.4355L8.02582 1.60749L8.11319 1.88354C8.12454 1.91926 8.0838 1.94888 8.05329 1.92704L7.81774 1.75866L7.5822 1.92704C7.55168 1.94888 7.51104 1.91926 7.52229 1.88354L7.60967 1.60749L7.37675 1.4355C7.34661 1.41319 7.36212 1.36538 7.39962 1.3651L7.68917 1.3629L7.78076 1.08821C7.79252 1.05263 7.84287 1.05263 7.85473 1.08821Z" fill="#F5F5F5"/>
<path d="M7.85473 2.52567L7.94632 2.80036L8.23587 2.80256C8.27337 2.80289 8.28888 2.85066 8.25874 2.87297L8.02582 3.045L8.11319 3.32105C8.12454 3.35676 8.0838 3.38639 8.05329 3.36455L7.81774 3.19617L7.5822 3.36455C7.55168 3.38634 7.51104 3.35676 7.52229 3.32105L7.60967 3.045L7.37675 2.87297C7.34661 2.85066 7.36212 2.80289 7.39962 2.80256L7.68917 2.80036L7.78076 2.52567C7.79252 2.49014 7.84287 2.49014 7.85473 2.52567Z" fill="#F5F5F5"/>
<path d="M7.85473 3.96223L7.94632 4.23692L8.23587 4.23912C8.27337 4.23945 8.28888 4.28722 8.25874 4.30953L8.02582 4.48156L8.11319 4.75761C8.12454 4.79332 8.0838 4.82295 8.05329 4.80111L7.81774 4.63273L7.5822 4.80111C7.55168 4.8229 7.51104 4.79337 7.52229 4.75761L7.60967 4.48156L7.37675 4.30953C7.34661 4.28722 7.36212 4.23945 7.39962 4.23912L7.68917 4.23692L7.78076 3.96223C7.79252 3.92665 7.84287 3.92665 7.85473 3.96223Z" fill="#F5F5F5"/>
<path d="M7.85473 5.39875L7.94632 5.67344L8.23587 5.67565C8.27337 5.67597 8.28888 5.72379 8.25874 5.74605L8.02582 5.91808L8.11319 6.19413C8.12454 6.22985 8.0838 6.25948 8.05329 6.23763L7.81774 6.06926L7.5822 6.23763C7.55168 6.25943 7.51104 6.22985 7.52229 6.19413L7.60967 5.91808L7.37675 5.74605C7.34661 5.72383 7.36212 5.67597 7.39962 5.67565L7.68917 5.67344L7.78076 5.39875C7.79252 5.36318 7.84287 5.36318 7.85473 5.39875Z" fill="#F5F5F5"/>
<path d="M7.85473 6.83622L7.94632 7.11091L8.23587 7.11311C8.27337 7.11344 8.28888 7.1612 8.25874 7.18351L8.02582 7.35555L8.11319 7.63159C8.12454 7.66731 8.0838 7.69694 8.05329 7.67509L7.81774 7.50672L7.5822 7.67509C7.55168 7.69689 7.51104 7.66731 7.52229 7.63159L7.60967 7.35555L7.37675 7.18351C7.34661 7.1612 7.36212 7.11344 7.39962 7.11311L7.68917 7.11091L7.78076 6.83622C7.79252 6.80069 7.84287 6.80069 7.85473 6.83622Z" fill="#F5F5F5"/>
<path d="M8.96996 1.79325L9.06156 2.06794L9.3511 2.07014C9.3886 2.07047 9.40412 2.11828 9.37398 2.14055L9.14106 2.31258L9.22843 2.58863C9.23978 2.62435 9.19904 2.65397 9.16853 2.63213L8.93298 2.46375L8.69743 2.63213C8.66692 2.65393 8.62628 2.62435 8.63753 2.58863L8.7249 2.31258L8.49198 2.14055C8.46184 2.11824 8.47736 2.07047 8.51486 2.07014L8.8044 2.06794L8.896 1.79325C8.90781 1.75772 8.9581 1.75772 8.96996 1.79325Z" fill="#F5F5F5"/>
<path d="M8.96996 3.22981L9.06156 3.5045L9.3511 3.5067C9.3886 3.50703 9.40412 3.55484 9.37398 3.57711L9.14106 3.74914L9.22843 4.02518C9.23978 4.0609 9.19904 4.09053 9.16853 4.06868L8.93298 3.90031L8.69743 4.06868C8.66692 4.09048 8.62628 4.06095 8.63753 4.02518L8.7249 3.74914L8.49198 3.57711C8.46184 3.55489 8.47736 3.50703 8.51486 3.5067L8.8044 3.5045L8.896 3.22981C8.90781 3.19423 8.9581 3.19423 8.96996 3.22981Z" fill="#F5F5F5"/>
<path d="M8.96996 4.66633L9.06156 4.94102L9.3511 4.94322C9.3886 4.94355 9.40412 4.99132 9.37398 5.01363L9.14106 5.18566L9.22843 5.46171C9.23978 5.49743 9.19904 5.52705 9.16853 5.50521L8.93298 5.33683L8.69743 5.50521C8.66692 5.52701 8.62628 5.49743 8.63753 5.46171L8.7249 5.18566L8.49198 5.01363C8.46184 4.99132 8.47736 4.94355 8.51486 4.94322L8.8044 4.94102L8.896 4.66633C8.90781 4.63075 8.9581 4.63075 8.96996 4.66633Z" fill="#F5F5F5"/>
<path d="M8.96996 6.1038L9.06156 6.37848L9.3511 6.38069C9.3886 6.38102 9.40412 6.42878 9.37398 6.45109L9.14106 6.62312L9.22843 6.89917C9.23978 6.93489 9.19904 6.96451 9.16853 6.94267L8.93298 6.7743L8.69743 6.94267C8.66692 6.96451 8.62628 6.93489 8.63753 6.89917L8.7249 6.62312L8.49198 6.45109C8.46184 6.42878 8.47736 6.38102 8.51486 6.38069L8.8044 6.37848L8.896 6.1038C8.90781 6.06827 8.9581 6.06827 8.96996 6.1038Z" fill="#F5F5F5"/>
<path d="M10.0852 1.08821L10.1768 1.3629L10.4663 1.3651C10.5038 1.36543 10.5194 1.41324 10.4892 1.4355L10.2563 1.60749L10.3437 1.88354C10.355 1.91926 10.3143 1.94888 10.2838 1.92704L10.0482 1.75866L9.81267 1.92704C9.78215 1.94888 9.74151 1.91926 9.75276 1.88354L9.84014 1.60749L9.60722 1.4355C9.57708 1.41319 9.59259 1.36538 9.63009 1.3651L9.91964 1.3629L10.0112 1.08821C10.023 1.05263 10.0733 1.05263 10.0852 1.08821Z" fill="#F5F5F5"/>
<path d="M10.0852 2.52567L10.1768 2.80036L10.4663 2.80256C10.5038 2.80289 10.5194 2.85066 10.4892 2.87297L10.2563 3.045L10.3437 3.32105C10.355 3.35676 10.3143 3.38639 10.2838 3.36455L10.0482 3.19617L9.81267 3.36455C9.78215 3.38634 9.74151 3.35676 9.75276 3.32105L9.84014 3.045L9.60722 2.87297C9.57708 2.85066 9.59259 2.80289 9.63009 2.80256L9.91964 2.80036L10.0112 2.52567C10.023 2.49014 10.0733 2.49014 10.0852 2.52567Z" fill="#F5F5F5"/>
<path d="M10.0852 3.96223L10.1768 4.23692L10.4663 4.23912C10.5038 4.23945 10.5194 4.28722 10.4892 4.30953L10.2563 4.48156L10.3437 4.75761C10.355 4.79332 10.3143 4.82295 10.2838 4.80111L10.0482 4.63273L9.81267 4.80111C9.78215 4.8229 9.74151 4.79337 9.75276 4.75761L9.84014 4.48156L9.60722 4.30953C9.57708 4.28722 9.59259 4.23945 9.63009 4.23912L9.91964 4.23692L10.0112 3.96223C10.023 3.92665 10.0733 3.92665 10.0852 3.96223Z" fill="#F5F5F5"/>
<path d="M10.0852 5.39875L10.1768 5.67344L10.4663 5.67565C10.5038 5.67597 10.5194 5.72379 10.4892 5.74605L10.2563 5.91808L10.3437 6.19413C10.355 6.22985 10.3143 6.25948 10.2838 6.23763L10.0482 6.06926L9.81267 6.23763C9.78215 6.25943 9.74151 6.22985 9.75276 6.19413L9.84014 5.91808L9.60722 5.74605C9.57708 5.72383 9.59259 5.67597 9.63009 5.67565L9.91964 5.67344L10.0112 5.39875C10.023 5.36318 10.0733 5.36318 10.0852 5.39875Z" fill="#F5F5F5"/>
<path d="M10.0852 6.83622L10.1768 7.11091L10.4663 7.11311C10.5038 7.11344 10.5194 7.1612 10.4892 7.18351L10.2563 7.35555L10.3437 7.63159C10.355 7.66731 10.3143 7.69694 10.2838 7.67509L10.0482 7.50672L9.81267 7.67509C9.78215 7.69689 9.74151 7.66731 9.75276 7.63159L9.84014 7.35555L9.60722 7.18351C9.57708 7.1612 9.59259 7.11344 9.63009 7.11311L9.91964 7.11091L10.0112 6.83622C10.023 6.80069 10.0733 6.80069 10.0852 6.83622Z" fill="#F5F5F5"/>
</g>
<defs>
<clipPath id="clip0_149_10297">
<rect width="24" height="16" fill="white" transform="translate(0.000976562)"/>
</clipPath>
</defs>
</svg>
