<svg width="36" height="24" viewBox="0 0 24 16" fill="none" xmlns="http://www.w3.org/2000/svg">
<g clip-path="url(#clip0_149_10091)">
<path d="M22.2036 0.137695H1.7984C0.80568 0.137695 0.000976562 0.942399 0.000976562 1.93512V14.0645C0.000976562 15.0572 0.80568 15.8619 1.7984 15.8619H22.2036C23.1962 15.8619 24.001 15.0572 24.001 14.0645V1.93512C24.001 0.942399 23.1963 0.137695 22.2036 0.137695Z" fill="#73AF00"/>
<path d="M11.7858 2.33861L3.06439 7.64725C2.7995 7.80845 2.7995 8.19292 3.06439 8.35417L11.7858 13.6629C11.9179 13.7433 12.0839 13.7433 12.2161 13.6629L20.9374 8.35422C21.2023 8.19301 21.2023 7.80854 20.9374 7.64729L12.2161 2.33861C12.0839 2.25822 11.9179 2.25822 11.7858 2.33861Z" fill="#FFE15A"/>
<path d="M12.0007 11.3101C13.829 11.3101 15.3111 9.828 15.3111 7.99977C15.3111 6.17153 13.829 4.68945 12.0007 4.68945C10.1725 4.68945 8.69043 6.17153 8.69043 7.99977C8.69043 9.828 10.1725 11.3101 12.0007 11.3101Z" fill="#41479B"/>
<path d="M9.1602 6.30608C9.00401 6.56755 8.8834 6.85171 8.80371 7.15345C10.6388 7.01535 13.3535 7.52873 15.0813 9.20532C15.1941 8.91746 15.2686 8.6108 15.2965 8.29022C13.5124 6.78867 11.0459 6.25471 9.1602 6.30608Z" fill="#F5F5F5"/>
<path d="M12.1379 9.12921L12.226 9.3935L12.5046 9.39565C12.5406 9.39593 12.5556 9.44197 12.5265 9.46339L12.3024 9.6289L12.3865 9.8945C12.3974 9.9289 12.3582 9.95736 12.3289 9.93636L12.1022 9.77436L11.8756 9.93636C11.8462 9.95731 11.8071 9.9289 11.818 9.8945L11.902 9.6289L11.6779 9.46339C11.6489 9.44197 11.6638 9.39593 11.6999 9.39565L11.9785 9.3935L12.0666 9.12921C12.078 9.09495 12.1264 9.09495 12.1379 9.12921Z" fill="#F5F5F5"/>
<path d="M13.2208 9.81283L13.2587 9.92655L13.3786 9.92749C13.3942 9.92758 13.4006 9.94741 13.3881 9.95665L13.2916 10.0279L13.3278 10.1422C13.3324 10.157 13.3156 10.1692 13.3029 10.1602L13.2054 10.0905L13.1078 10.1602C13.0952 10.1692 13.0784 10.157 13.083 10.1422L13.1192 10.0279L13.0227 9.95665C13.0102 9.94746 13.0167 9.92763 13.0322 9.92749L13.1521 9.92655L13.19 9.81283C13.195 9.79807 13.2159 9.79807 13.2208 9.81283Z" fill="#F5F5F5"/>
<path d="M11.67 8.62718L11.7079 8.7409L11.8278 8.74184C11.8433 8.74194 11.8498 8.76176 11.8373 8.771L11.7408 8.8422L11.777 8.95654C11.7816 8.97135 11.7648 8.98358 11.7522 8.97454L11.6546 8.90483L11.5571 8.97454C11.5445 8.98358 11.5276 8.97135 11.5322 8.95654L11.5684 8.8422L11.4719 8.771C11.4594 8.76181 11.4659 8.74198 11.4814 8.74184L11.6013 8.7409L11.6392 8.62718C11.6442 8.61255 11.6651 8.61255 11.67 8.62718Z" fill="#F5F5F5"/>
<path d="M9.56944 8.48952L9.60736 8.60324L9.72726 8.60418C9.74278 8.60427 9.74925 8.6241 9.73673 8.63333L9.64026 8.70453L9.6764 8.81886C9.68104 8.83368 9.66426 8.84591 9.65156 8.83686L9.55401 8.76716L9.45647 8.83686C9.44386 8.84586 9.42699 8.83368 9.43167 8.81886L9.46781 8.70453L9.37135 8.63333C9.35883 8.62414 9.3653 8.60432 9.38081 8.60418L9.50072 8.60324L9.53864 8.48952C9.5437 8.47485 9.56451 8.47485 9.56944 8.48952Z" fill="#F5F5F5"/>
<path d="M11.3263 9.77276L11.3642 9.88647L11.4841 9.88741C11.4996 9.8875 11.5061 9.90733 11.4936 9.91657L11.3971 9.98777L11.4332 10.1021C11.4379 10.1169 11.4211 10.1291 11.4084 10.1201L11.3109 10.0504L11.2133 10.1201C11.2007 10.1291 11.1838 10.1169 11.1885 10.1021L11.2246 9.98777L11.1282 9.91657C11.1157 9.90738 11.1221 9.88755 11.1376 9.88741L11.2575 9.88647L11.2955 9.77276C11.3005 9.75804 11.3214 9.75804 11.3263 9.77276Z" fill="#F5F5F5"/>
<path d="M10.3597 8.41037L10.3907 8.50336L10.4888 8.50416C10.5014 8.50425 10.5067 8.52047 10.4965 8.52802L10.4177 8.58624L10.4472 8.6797C10.4511 8.69179 10.4373 8.70182 10.4269 8.69442L10.3471 8.63742L10.2674 8.69442C10.257 8.70182 10.2433 8.69179 10.2471 8.6797L10.2766 8.58624L10.1978 8.52802C10.1876 8.52047 10.1928 8.50425 10.2055 8.50416L10.3036 8.50336L10.3346 8.41037C10.3386 8.39837 10.3556 8.39837 10.3597 8.41037Z" fill="#F5F5F5"/>
<path d="M13.305 6.48991L13.3438 6.60625L13.4664 6.60719C13.4823 6.60728 13.4888 6.62758 13.476 6.63705L13.3774 6.70989L13.4144 6.82685C13.4192 6.84199 13.4019 6.8545 13.3891 6.84527L13.2893 6.77392L13.1895 6.84527C13.1765 6.85455 13.1593 6.84194 13.1641 6.82685L13.2011 6.70989L13.1025 6.63705C13.0897 6.62763 13.0963 6.60738 13.1121 6.60719L13.2347 6.60625L13.2735 6.48991C13.2786 6.47472 13.2999 6.47472 13.305 6.48991Z" fill="#F5F5F5"/>
<path d="M9.70441 7.84107L9.73544 7.93406L9.83351 7.93486C9.84616 7.93495 9.85146 7.95117 9.84129 7.95872L9.7624 8.01694L9.79198 8.1104C9.79582 8.12249 9.78204 8.13253 9.77168 8.12512L9.6919 8.06812L9.61211 8.12512C9.60175 8.13253 9.58802 8.12249 9.59182 8.1104L9.6214 8.01694L9.5425 7.95872C9.53229 7.95117 9.53754 7.935 9.55029 7.93486L9.64835 7.93406L9.67938 7.84107C9.68336 7.82902 9.70038 7.82902 9.70441 7.84107Z" fill="#F5F5F5"/>
<path d="M10.1777 9.15141L10.2247 9.29226L10.3732 9.29339C10.3924 9.29353 10.4004 9.31804 10.3849 9.32948L10.2654 9.4177L10.3102 9.55926C10.3161 9.57758 10.2952 9.59277 10.2795 9.58157L10.1587 9.49518L10.0379 9.58157C10.0222 9.59272 10.0013 9.57758 10.0072 9.55926L10.052 9.4177L9.93248 9.32948C9.91701 9.31804 9.92498 9.29353 9.9442 9.29339L10.0927 9.29226L10.1397 9.15141C10.1459 9.13313 10.1717 9.13313 10.1777 9.15141Z" fill="#F5F5F5"/>
<path d="M13.8244 9.8426L13.854 9.93124L13.9474 9.93194C13.9595 9.93203 13.9645 9.94746 13.9548 9.95463L13.8797 10.0101L13.9079 10.0992C13.9115 10.1107 13.8984 10.1202 13.8885 10.1132L13.8125 10.0589L13.7365 10.1132C13.7266 10.1202 13.7135 10.1107 13.7171 10.0992L13.7453 10.0101L13.6702 9.95463C13.6604 9.94746 13.6655 9.93203 13.6776 9.93194L13.771 9.93124L13.8005 9.8426C13.8044 9.83111 13.8206 9.83111 13.8244 9.8426Z" fill="#F5F5F5"/>
<path d="M14.1514 9.16635L14.1893 9.28007L14.3092 9.28101C14.3248 9.2811 14.3312 9.30093 14.3187 9.31016L14.2222 9.38137L14.2584 9.4957C14.263 9.51051 14.2462 9.52274 14.2336 9.5137L14.136 9.44399L14.0385 9.5137C14.0259 9.52274 14.009 9.51051 14.0137 9.4957L14.0498 9.38137L13.9534 9.31016C13.9409 9.30097 13.9473 9.28115 13.9628 9.28101L14.0827 9.28007L14.1207 9.16635C14.1256 9.15158 14.1465 9.15158 14.1514 9.16635Z" fill="#F5F5F5"/>
</g>
<defs>
<clipPath id="clip0_149_10091">
<rect width="24" height="16" fill="white" transform="translate(0.000976562)"/>
</clipPath>
</defs>
</svg>
